<?xml version="1.0" encoding="iso-8859-1"?>
<!-- Generator: Adobe Illustrator 19.0.0, SVG Export Plug-In . SVG Version: 6.00 Build 0)  -->
<svg version="1.1" id="Layer_1" xmlns="http://www.w3.org/2000/svg" xmlns:xlink="http://www.w3.org/1999/xlink" x="0px" y="0px"
	 viewBox="0 0 511.998 511.998" style="enable-background:new 0 0 511.998 511.998;" xml:space="preserve">
<g>
	<path style="fill:#E6643C;" d="M203.728,170.153c9.218-6.208,15.094-16.913,14.599-28.831
		c-0.759-18.254-16.172-32.437-34.426-31.678s-32.437,16.172-31.678,34.426c0.557,13.413,9.032,24.619,20.727,29.323
		c1.578,28.298,13,55.937,13.546,57.242c2.566,6.133,8.625,9.741,14.9,9.48c1.78-0.074,3.58-0.461,5.32-1.189
		c7.873-3.294,11.586-12.346,8.291-20.22C211.894,211.266,204.466,189.447,203.728,170.153z"/>
	<path style="fill:#E6643C;" d="M308.27,170.153c-9.218-6.208-15.095-16.913-14.599-28.831
		c0.759-18.254,16.172-32.437,34.426-31.678c18.254,0.759,32.437,16.172,31.678,34.426c-0.557,13.413-9.032,24.619-20.727,29.323
		c-1.578,28.298-13,55.937-13.546,57.242c-2.566,6.133-8.625,9.741-14.9,9.48c-1.78-0.074-3.58-0.461-5.32-1.189
		c-7.873-3.294-11.586-12.346-8.291-20.22C300.105,211.266,307.531,189.447,308.27,170.153z"/>
	<path style="fill:#E6643C;" d="M141.285,232.592c-35.761-36.725-67.158-3.966-28.13,27.686S141.285,232.592,141.285,232.592z"/>
</g>
<g>
	<path style="fill:#FF6F43;" d="M442.563,126.132l28.042-60.229c0,0,37.572,9.185,41.218,61.906
		c2.896,41.877-30.647,77.474-72.623,77.218c-1.583-0.009-2.471-0.062-2.471-0.062L442.563,126.132z"/>
	<path style="fill:#FF6F43;" d="M399.035,216.465c22.992-77.321,99.384-17.853,16.983,20.673L399.035,216.465z"/>
</g>
<g>
	<path style="fill:#E6643C;" d="M370.714,232.592c35.761-36.725,67.158-3.966,28.13,27.686S370.714,232.592,370.714,232.592z"/>
	<path style="fill:#E6643C;" d="M123.967,329.204c-10.347,2.779-20.912,4.366-30.883,8.982c-11.101,5.139-19.909,13.2-19.521,26.251
		c0.231,7.797,2.782,15.243,5.394,22.512c1.794,4.991,2.843,11.13-3.511,13.425c-2.955,1.066-6.135,0.248-8.223-1.829
		c-7.671-7.625-14.204-16.725-17.665-27.051c-5.125-15.296-2.577-31.659,6.944-44.657c8.436-11.518,20.972-19.576,33.953-25.103
		c14.041-5.977,45.328-17.528,49.048,6.882c1.376,9.034-4.23,16.538-12.506,19.628C126,328.616,124.988,328.93,123.967,329.204z"/>
	<path style="fill:#E6643C;" d="M178.794,365.837c-9.623,4.71-19.689,8.291-28.591,14.731c-9.912,7.17-17.012,16.769-14.132,29.503
		c1.72,7.608,5.65,14.428,9.606,21.061c2.717,4.555,4.923,10.379-0.875,13.848c-2.696,1.613-5.973,1.419-8.422-0.219
		c-8.99-6.014-17.145-13.695-22.518-23.166c-7.96-14.031-8.592-30.579-1.738-45.16c6.074-12.921,16.833-23.23,28.517-31.141
		c12.635-8.556,41.131-25.886,49.458-2.64c3.081,8.603-0.984,17.042-8.515,21.661C180.676,364.87,179.743,365.372,178.794,365.837z"
		/>
	<path style="fill:#E6643C;" d="M388.031,329.204c10.347,2.779,20.912,4.366,30.883,8.982c11.101,5.139,19.909,13.2,19.521,26.251
		c-0.231,7.797-2.782,15.243-5.394,22.512c-1.794,4.991-2.843,11.13,3.511,13.425c2.955,1.066,6.135,0.248,8.223-1.829
		c7.671-7.625,14.204-16.725,17.665-27.051c5.125-15.296,2.577-31.659-6.944-44.657c-8.436-11.518-20.972-19.576-33.953-25.103
		c-14.041-5.977-45.328-17.528-49.048,6.882c-1.376,9.034,4.23,16.538,12.506,19.628
		C385.999,328.616,387.009,328.93,388.031,329.204z"/>
	<path style="fill:#E6643C;" d="M333.205,365.837c9.623,4.71,19.689,8.291,28.591,14.731c9.912,7.17,17.012,16.769,14.132,29.503
		c-1.72,7.608-5.65,14.428-9.606,21.061c-2.717,4.555-4.923,10.379,0.875,13.848c2.696,1.613,5.973,1.419,8.422-0.219
		c8.99-6.014,17.145-13.695,22.518-23.166c7.96-14.031,8.592-30.579,1.738-45.16c-6.074-12.921-16.833-23.23-28.517-31.141
		c-12.635-8.556-41.131-25.886-49.458-2.64c-3.081,8.603,0.984,17.042,8.515,21.661C331.323,364.87,332.255,365.372,333.205,365.837
		z"/>
</g>
<path style="opacity:0.1;enable-background:new    ;" d="M186.496,230.635c2.566,6.134,8.625,9.741,14.9,9.48
	c1.781-0.074,3.58-0.459,5.32-1.189c7.873-3.294,11.586-12.346,8.291-20.219c-2.523-6.031-7.877-21.499-10.21-37.415
	c-10.405,1.924-20.477,4.435-30.101,7.506C178.367,210.976,186.05,229.571,186.496,230.635z"/>
<path style="opacity:0.1;enable-background:new    ;" d="M307.202,181.292c-2.333,15.917-7.688,31.385-10.21,37.415
	c-3.294,7.873,0.418,16.925,8.292,20.219c1.74,0.729,3.54,1.115,5.32,1.189c6.275,0.261,12.334-3.346,14.9-9.48
	c0.446-1.065,8.128-19.659,11.801-41.837C327.679,185.728,317.607,183.216,307.202,181.292z"/>
<path style="opacity:0.1;enable-background:new    ;" d="M431.556,306.602c-3.265-1.805-6.622-3.426-10.013-4.87
	c-14.041-5.977-45.328-17.529-49.048,6.882c-1.376,9.034,4.23,16.538,12.507,19.628c0.996,0.372,2.008,0.686,3.029,0.96
	c9.864,2.65,19.925,4.222,29.481,8.361C424.417,327.868,429.148,317.474,431.556,306.602z"/>
<path style="opacity:0.1;enable-background:new    ;" d="M371.358,345.293c-12.635-8.556-41.132-25.885-49.458-2.64
	c-3.081,8.603,0.984,17.042,8.515,21.66c0.907,0.556,1.839,1.058,2.789,1.524c9.623,4.71,19.689,8.29,28.591,14.731
	c0.122,0.088,0.237,0.181,0.358,0.27c4.818-2.242,9.472-4.64,13.927-7.202c5.569-3.202,10.753-6.603,15.556-10.174
	C385.908,356.39,378.825,350.349,371.358,345.293z"/>
<path style="opacity:0.1;enable-background:new    ;" d="M140.639,345.293c-7.467,5.056-14.55,11.096-20.279,18.168
	c4.803,3.572,9.987,6.972,15.556,10.174c4.457,2.562,9.11,4.96,13.928,7.202c0.121-0.089,0.236-0.181,0.359-0.27
	c8.903-6.44,18.968-10.021,28.591-14.731c0.95-0.465,1.882-0.966,2.789-1.524c7.532-4.618,11.597-13.057,8.515-21.66
	C181.771,319.408,153.275,336.738,140.639,345.293z"/>
<path style="opacity:0.1;enable-background:new    ;" d="M139.502,308.615c-3.72-24.411-35.007-12.859-49.048-6.882
	c-3.39,1.443-6.749,3.065-10.013,4.87c2.409,10.871,7.139,21.265,14.044,30.963c9.557-4.139,19.618-5.711,29.482-8.361
	c1.021-0.274,2.033-0.588,3.029-0.96C135.273,325.153,140.879,317.649,139.502,308.615z"/>
<ellipse style="fill:#FF6F43;" cx="256.004" cy="289.64" rx="151.666" ry="87.206"/>
<g>
	<circle style="fill:#212121;" cx="185.27" cy="142.692" r="10.918"/>
	<circle style="fill:#212121;" cx="326.727" cy="142.692" r="10.918"/>
</g>
<g>
	<path style="fill:#FF6F43;" d="M69.435,126.132L41.393,65.903c0,0-37.572,9.185-41.218,61.906
		c-2.896,41.877,30.647,77.474,72.623,77.218c1.583-0.009,2.471-0.062,2.471-0.062L69.435,126.132z"/>
	<path style="fill:#FF6F43;" d="M112.963,216.465c-22.992-77.321-99.384-17.853-16.983,20.673L112.963,216.465z"/>
</g>
<g>
	<path style="fill:#E6643C;" d="M80.662,119.152c7.827-7.06,20.363-2.568,21.919,7.857c4.695,31.464,6.277,82.925-38.844,62.863
		C27.997,173.981,58.674,138.985,80.662,119.152z"/>
	<path style="fill:#E6643C;" d="M431.337,119.152c-7.827-7.06-20.363-2.568-21.919,7.857c-4.695,31.464-6.277,82.925,38.844,62.863
		C484.002,173.981,453.324,138.985,431.337,119.152z"/>
</g>
<path style="fill:#212121;" d="M255.996,270.679c-10.298,0-19.709-2.632-25.821-7.223c-5.942-4.464-7.142-12.899-2.679-18.841
	c4.463-5.943,12.899-7.14,18.841-2.679c0.544,0.375,3.844,1.83,9.658,1.83c5.815,0,9.115-1.456,9.681-1.845
	c5.942-4.463,14.366-3.257,18.831,2.686c4.463,5.942,3.253,14.386-2.69,18.849C275.705,268.046,266.294,270.679,255.996,270.679z"/>
<g>
</g>
<g>
</g>
<g>
</g>
<g>
</g>
<g>
</g>
<g>
</g>
<g>
</g>
<g>
</g>
<g>
</g>
<g>
</g>
<g>
</g>
<g>
</g>
<g>
</g>
<g>
</g>
<g>
</g>
</svg>
