<?xml version="1.0" encoding="iso-8859-1"?>
<!-- Generator: Adobe Illustrator 19.0.0, SVG Export Plug-In . SVG Version: 6.00 Build 0)  -->
<svg version="1.1" id="Layer_1" xmlns="http://www.w3.org/2000/svg" xmlns:xlink="http://www.w3.org/1999/xlink" x="0px" y="0px"
	 viewBox="0 0 512 512" style="enable-background:new 0 0 512 512;" xml:space="preserve">
<g>
	<path style="fill:#FF5023;" d="M237.185,483.685c-10.02,14.885-30.208,18.829-45.094,8.811
		c-14.885-10.02-18.829-30.208-8.811-45.094c10.02-14.885,57.833-59.87,72.718-49.85C270.884,407.571,247.205,468.8,237.185,483.685
		z"/>
	<path style="fill:#FF5023;" d="M270.567,483.685c10.02,14.885,30.208,18.829,45.094,8.811c14.885-10.02,18.829-30.208,8.811-45.094
		c-10.02-14.885-57.833-59.87-72.718-49.85C236.868,407.571,260.547,468.8,270.567,483.685z"/>
</g>
<g>
	<path style="fill:#FF3501;" d="M288.489,479.511C288.489,497.454,273.943,512,256,512s-32.489-14.546-32.489-32.489
		c0-17.943,14.546-81.96,32.489-81.96S288.489,461.569,288.489,479.511z"/>
	<path style="fill:#FF3501;" d="M314.721,435.787c-17.79-18.825-51.008-46.287-62.969-38.236
		c-9.277,6.244-3.575,32.375,4.464,54.785h14.374C287.464,452.336,302.895,446.081,314.721,435.787z"/>
	<path style="fill:#FF3501;" d="M256,397.552c-11.53-7.762-42.814,17.479-60.989,36.17c12.085,11.519,28.424,18.614,46.399,18.614
		h10.126C259.574,429.927,265.276,403.795,256,397.552z"/>
</g>
<g>
	<path style="fill:#CD2A00;" d="M241.41,452.336h29.181c4.663,0,9.217-0.479,13.615-1.385c-5.602-24.427-16.134-53.4-28.206-53.4
		c-12.072,0-22.604,28.973-28.206,53.4C232.193,451.859,236.747,452.336,241.41,452.336z"/>
	<path style="fill:#CD2A00;" d="M146.468,327.326c-3.998-1.659-5.546-6.555-3.673-10.456l15.803-32.914
		c0.956-1.991,2.706-3.485,4.821-4.117c2.116-0.632,4.399-0.343,6.289,0.797l38.139,22.988c3.707,2.234,4.901,7.051,2.667,10.757
		c-2.235,3.706-7.051,4.902-10.757,2.667l-30.759-18.54l-12.073,25.145C155.577,326.46,151.685,329.491,146.468,327.326z"/>
	<path style="fill:#CD2A00;" d="M154.601,383.261c-3.965-1.736-5.546-6.555-3.673-10.456l15.803-32.914
		c0.956-1.991,2.706-3.485,4.821-4.117c2.116-0.632,4.399-0.343,6.289,0.797l38.139,22.988c3.707,2.234,4.901,7.051,2.667,10.757
		c-2.234,3.706-7.05,4.901-10.757,2.667l-30.759-18.54l-12.073,25.145C163.71,382.396,159.869,385.567,154.601,383.261z"/>
	<path style="fill:#CD2A00;" d="M355.075,323.653l-12.073-25.145l-30.759,18.54c-3.707,2.235-8.523,1.041-10.757-2.667
		c-2.234-3.706-1.041-8.523,2.667-10.757l38.139-22.988c1.89-1.139,4.171-1.429,6.289-0.797c2.115,0.632,3.865,2.126,4.821,4.117
		l15.803,32.914c1.872,3.902,0.263,8.657-3.673,10.456C359.27,330.188,356.423,326.461,355.075,323.653z"/>
	<path style="fill:#CD2A00;" d="M346.942,379.588l-12.073-25.145l-30.759,18.54c-3.706,2.235-8.523,1.04-10.757-2.667
		c-2.234-3.706-1.041-8.523,2.667-10.757l38.139-22.988c1.89-1.139,4.172-1.429,6.289-0.797c2.115,0.632,3.865,2.126,4.821,4.117
		l15.803,32.914c1.872,3.902,0.165,8.456-3.673,10.456C352.305,385.915,348.29,382.396,346.942,379.588z"/>
	<path style="fill:#CD2A00;" d="M297.133,239.347L297.133,239.347c9.087,9.593,24.371,10.006,33.964,0.918l107.45-101.79
		c9.593-9.087,10.006-24.371,0.918-33.964l0,0c-9.087-9.593-24.371-10.006-33.964-0.918l-107.45,101.79
		C288.459,214.47,288.046,229.754,297.133,239.347z"/>
</g>
<path style="fill:#FF5023;" d="M374.369,126.374c18.286,23.362,52.047,27.476,75.409,9.19s27.476-52.047,9.19-75.409
	c-18.286-23.362-88.911-74.572-112.273-56.287C323.333,22.154,356.083,103.012,374.369,126.374z"/>
<path style="fill:#FF3501;" d="M374.369,126.374c-18.286-23.362-51.035-104.22-27.674-122.506l103.083,131.696
	C426.416,153.85,392.655,149.735,374.369,126.374z"/>
<path style="fill:#AB2300;" d="M360.907,212.026c-1.353-16.068-5.2-35.865-10.758-55.996l-52.097,49.353
	c-9.593,9.087-10.006,24.371-0.918,33.964c9.087,9.593,24.371,10.006,33.964,0.918L360.907,212.026z"/>
<path style="fill:#CD2A00;" d="M214.866,239.347L214.866,239.347c-9.087,9.593-24.371,10.006-33.964,0.918L73.453,138.476
	c-9.593-9.087-10.006-24.371-0.918-33.964l0,0c9.087-9.593,24.371-10.006,33.964-0.918l107.45,101.79
	C223.541,214.47,223.954,229.754,214.866,239.347z"/>
<path style="fill:#FF5023;" d="M137.631,126.374c-18.286,23.362-52.047,27.476-75.409,9.19s-27.476-52.047-9.19-75.409
	s88.911-74.572,112.273-56.287S155.916,103.012,137.631,126.374z"/>
<path style="fill:#FF3501;" d="M137.631,126.374c18.286-23.362,51.035-104.22,27.674-122.506L62.221,135.564
	C85.583,153.85,119.345,149.735,137.631,126.374z"/>
<path style="fill:#AB2300;" d="M161.851,156.03c-5.558,20.132-9.404,39.929-10.758,55.996l29.81,28.239
	c9.593,9.087,24.877,8.674,33.964-0.918l0,0c9.087-9.593,8.674-24.877-0.918-33.964L161.851,156.03z"/>
<g>
	<path style="fill:#FF3501;" d="M54.845,345.88c-3.919-1.837-5.415-6.664-3.464-10.528L197.17,46.588
		c1.079-2.137,3.076-3.663,5.422-4.145c2.346-0.481,4.783,0.137,6.615,1.677l39.174,32.916c3.313,2.785,3.743,7.728,0.958,11.041
		c-2.785,3.314-7.728,3.742-11.041,0.958l-31.598-26.55L65.372,342.416C63.994,345.146,59.82,348.212,54.845,345.88z"/>
	<path style="fill:#FF3501;" d="M446.628,342.416L305.299,62.487l-31.598,26.55c-3.312,2.785-8.257,2.355-11.041-0.958
		c-2.785-3.313-2.355-8.257,0.958-11.041l39.174-32.916c1.833-1.54,4.272-2.159,6.615-1.677c2.346,0.481,4.343,2.007,5.422,4.145
		l145.789,288.764c1.951,3.864,0.328,8.442-3.464,10.528C452.441,348.473,448.006,345.147,446.628,342.416z"/>
</g>
<path style="fill:#FF5023;" d="M270.59,426.214h-29.18c-22.657,0-41.194-18.538-41.194-41.194v-4.941
	c0-22.657,18.538-41.194,41.194-41.194h29.18c22.657,0,41.194,18.538,41.194,41.194v4.941
	C311.785,407.676,293.247,426.214,270.59,426.214z"/>
<path style="fill:#FF3501;" d="M270.59,338.884h-29.18c-22.657,0-41.194,18.538-41.194,41.194v4.941
	c0,2.135,0.165,4.234,0.483,6.283c11.217,6.974,24.437,11.016,38.589,11.016h33.425c14.152,0,27.372-4.042,38.589-11.016
	c0.318-2.05,0.483-4.148,0.483-6.283v-4.941C311.785,357.422,293.247,338.884,270.59,338.884z"/>
<path style="fill:#FF5023;" d="M272.713,376.197h-33.425c-25.953,0-47.188-21.234-47.188-47.188v-5.66
	c0-25.953,21.234-47.188,47.188-47.188h33.425c25.953,0,47.188,21.234,47.188,47.188v5.66
	C319.901,354.962,298.666,376.197,272.713,376.197z"/>
<path style="fill:#FF3501;" d="M272.713,276.16h-33.425c-25.953,0-47.188,21.234-47.188,47.188v5.66
	c0,3.123,0.315,6.175,0.901,9.133c12.657,8.907,28.063,14.158,44.682,14.158h36.636c16.618,0,32.025-5.252,44.682-14.158
	c0.586-2.958,0.901-6.01,0.901-9.133v-5.66C319.901,297.396,298.666,276.16,272.713,276.16z"/>
<path style="fill:#FF5023;" d="M274.318,326.178h-36.636c-28.446,0-51.719-23.274-51.719-51.719v-6.204
	c0-28.446,23.274-51.719,51.719-51.719h36.636c28.446,0,51.719,23.274,51.719,51.719v6.204
	C326.037,302.904,302.763,326.178,274.318,326.178z"/>
<path style="fill:#FF3501;" d="M326.037,268.254c0-28.446-23.274-51.719-51.719-51.719h-36.636
	c-28.446,0-51.719,23.274-51.719,51.719v6.204c0,4.339,0.548,8.557,1.567,12.591c0.575,0.275,25.804,10.43,68.471,10.43
	c40.926,0,67.895-10.155,68.471-10.43c1.019-4.034,1.567-8.252,1.567-12.591v-6.204H326.037z"/>
<path style="fill:#FF6243;" d="M335.325,223.777c0,43.81-35.515,47.579-79.326,47.579s-79.326-3.769-79.326-47.579
	S212.189,57.907,256,57.907C299.81,57.907,335.325,179.968,335.325,223.777z"/>
<g>
	<path style="fill:#FF5023;" d="M219.264,223.777c0-36.432,24.562-126.97,58.031-156.432c-6.777-5.965-13.917-9.439-21.295-9.439
		c-43.811,0-79.326,122.061-79.326,165.87s35.515,47.579,79.326,47.579c7.38,0,14.516-0.114,21.295-0.502
		C243.831,268.944,219.264,260.208,219.264,223.777z"/>
	<path style="fill:#FF5023;" d="M283.115,159.699c-1.42-4.447-2.927-8.848-4.478-13.081c-1.49-4.064,0.597-8.565,4.66-10.055
		c4.063-1.491,8.565,0.596,10.055,4.66c1.628,4.439,3.207,9.051,4.694,13.708c1.317,4.123-0.925,8.642-5.081,9.849
		C288.287,166.139,284.178,163.03,283.115,159.699z"/>
	<path style="fill:#FF5023;" d="M303.978,231.615c-4.328,0-7.837-3.509-7.837-7.837c0-8.664-2.411-24.008-6.291-40.044
		c-1.018-4.207,1.567-8.443,5.773-9.461c4.211-1.02,8.443,1.567,9.461,5.773c4.215,17.416,6.731,33.765,6.731,43.73
		C311.815,228.106,308.306,231.615,303.978,231.615z"/>
</g>
<g>
	<path style="fill:#1D1D1F;" d="M238.568,109.029c-2.43,0-4.798-0.982-6.503-2.7c-1.719-1.706-2.7-4.087-2.7-6.503
		c0-2.418,0.981-4.798,2.7-6.504c1.705-1.718,4.073-2.699,6.503-2.699c2.429,0,4.798,0.981,6.503,2.699
		c1.719,1.706,2.7,4.087,2.7,6.504c0,2.417-0.981,4.798-2.7,6.503C243.366,108.046,240.997,109.029,238.568,109.029z"/>
	<path style="fill:#1D1D1F;" d="M273.432,109.029c-2.43,0-4.798-0.982-6.503-2.7c-1.719-1.706-2.7-4.087-2.7-6.503
		c0-2.418,0.981-4.798,2.7-6.504c1.705-1.718,4.073-2.699,6.503-2.699c2.429,0,4.798,0.981,6.503,2.699
		c1.719,1.706,2.7,4.087,2.7,6.504c0,2.417-0.981,4.798-2.7,6.503C278.23,108.046,275.861,109.029,273.432,109.029z"/>
</g>
<g>
</g>
<g>
</g>
<g>
</g>
<g>
</g>
<g>
</g>
<g>
</g>
<g>
</g>
<g>
</g>
<g>
</g>
<g>
</g>
<g>
</g>
<g>
</g>
<g>
</g>
<g>
</g>
<g>
</g>
</svg>
