<?xml version="1.0" encoding="iso-8859-1"?>
<!-- Generator: Adobe Illustrator 19.0.0, SVG Export Plug-In . SVG Version: 6.00 Build 0)  -->
<svg version="1.1" id="Layer_1" xmlns="http://www.w3.org/2000/svg" xmlns:xlink="http://www.w3.org/1999/xlink" x="0px" y="0px"
	 viewBox="0 0 512 512" style="enable-background:new 0 0 512 512;" xml:space="preserve">
<circle style="fill:#464655;" cx="256" cy="256.001" r="72.5"/>
<path d="M504,248.196H335.599c-0.61-6.123-1.933-12.037-3.851-17.678l108.776-45.057c4.082-1.69,6.021-6.37,4.33-10.452
	s-6.373-6.02-10.453-4.329l-109.303,45.275c-2.61-4.465-5.637-8.652-9.031-12.513l120.04-120.041c3.125-3.125,3.125-8.189,0-11.314
	c-3.124-3.123-8.189-3.123-11.313,0L304.359,192.522c-3.972-3.023-8.235-5.68-12.738-7.929l64.38-155.427
	c1.691-4.082-0.248-8.762-4.33-10.452c-4.081-1.689-8.762,0.247-10.453,4.329l-64.564,155.871
	c-4.101-1.098-8.325-1.886-12.655-2.318v-144.4c0-4.418-3.582-8-8-8s-8,3.582-8,8v144.4c-4.955,0.495-9.771,1.46-14.42,2.82
	L162.754,8.428c-1.691-4.082-6.373-6.02-10.453-4.329c-4.082,1.69-6.021,6.37-4.33,10.452l70.78,170.878
	c-4.655,2.46-9.041,5.361-13.098,8.656l-95.997-95.997c-3.124-3.123-8.189-3.123-11.313,0c-3.125,3.125-3.125,8.189,0,11.314
	l95.942,95.942c-3.333,4.039-6.273,8.412-8.773,13.056L43.56,159.602c-4.081-1.689-8.761,0.247-10.453,4.329
	c-1.691,4.082,0.248,8.762,4.33,10.452l141.953,58.799c-1.454,4.831-2.474,9.849-2.989,15.015H8c-4.418,0-8,3.582-8,8
	c0,4.418,3.582,8,8,8h168.401c0.424,4.246,1.186,8.394,2.25,12.42L66.554,323.048c-4.082,1.69-6.021,6.371-4.33,10.453
	c1.276,3.08,4.255,4.939,7.394,4.939c1.021,0,2.058-0.196,3.059-0.611L184.286,291.6c2.272,4.583,4.967,8.919,8.04,12.956
	L72.343,424.539c-3.125,3.125-3.125,8.189,0,11.314c1.562,1.562,3.609,2.343,5.657,2.343s4.095-0.781,5.657-2.343l119.59-119.591
	c3.922,3.449,8.182,6.518,12.726,9.154l-64.51,155.742c-1.691,4.082,0.248,8.762,4.33,10.452c1.001,0.415,2.038,0.611,3.058,0.611
	c3.139,0,6.118-1.859,7.395-4.94l64.311-155.259c5.571,1.874,11.406,3.169,17.445,3.772v136.4c0,4.418,3.582,8,8,8s8-3.582,8-8
	v-136.4c5.305-0.529,10.456-1.583,15.406-3.101l70.781,170.879c1.276,3.081,4.255,4.94,7.394,4.94c1.021,0,2.058-0.196,3.059-0.611
	c4.082-1.69,6.021-6.37,4.33-10.453l-70.813-170.955c4.416-2.406,8.578-5.222,12.442-8.386l97.308,97.308
	c1.562,1.562,3.609,2.343,5.657,2.343s4.095-0.781,5.657-2.343c3.125-3.125,3.125-8.189,0-11.314l-97.307-97.307
	c3.159-3.859,5.97-8.014,8.374-12.422l127.139,52.662c1.001,0.414,2.038,0.611,3.059,0.611c3.139,0,6.118-1.859,7.394-4.94
	c1.691-4.081-0.248-8.762-4.33-10.452l-127.056-52.627c1.521-4.959,2.577-10.119,3.106-15.432H504c4.418,0,8-3.582,8-8
	C512,251.776,508.418,248.196,504,248.196z M277.657,266.539c-3.124-3.122-8.189-3.122-11.313,0c-3.125,3.125-3.125,8.189,0,11.314
	l28.869,28.869c-3.641,2.832-7.587,5.287-11.792,7.29c-0.951,0.025-1.913,0.214-2.844,0.601c-0.968,0.401-1.811,0.974-2.518,1.663
	c-4.473,1.648-9.184,2.791-14.058,3.402v-23.482c0-4.418-3.582-8-8-8s-8,3.582-8,8v23.482c-3.887-0.487-7.67-1.312-11.311-2.467
	l3.915-9.451c1.691-4.082-0.248-8.762-4.33-10.452c-4.083-1.693-8.762,0.247-10.453,4.329l-3.663,8.844
	c-9.754-6.103-17.746-14.756-23.048-25.021l12.276-5.086c4.082-1.69,6.021-6.37,4.33-10.452s-6.373-6.02-10.453-4.329l-11.651,4.826
	c-1.043-4.578-1.613-9.334-1.613-14.223c0-14.883,5.12-28.582,13.672-39.465l29.122,29.122c1.562,1.562,3.609,2.343,5.657,2.343
	c2.047,0,4.095-0.781,5.657-2.343c3.125-3.125,3.125-8.189,0-11.314l-29.067-29.067c8.802-6.776,19.405-11.309,30.96-12.758v15.482
	c0,4.418,3.582,8,8,8s8-3.582,8-8v-15.482c19.422,2.435,36.158,13.596,46.151,29.434l-25.289,10.475
	c-4.082,1.69-6.021,6.37-4.33,10.452c1.276,3.081,4.255,4.94,7.394,4.94c1.021,0,2.058-0.196,3.059-0.611l25.952-10.75
	c1.981,6.164,3.063,12.729,3.063,19.543c0,14.768-5.041,28.371-13.474,39.213L277.657,266.539z"/>
<g>
</g>
<g>
</g>
<g>
</g>
<g>
</g>
<g>
</g>
<g>
</g>
<g>
</g>
<g>
</g>
<g>
</g>
<g>
</g>
<g>
</g>
<g>
</g>
<g>
</g>
<g>
</g>
<g>
</g>
</svg>
