<?xml version="1.0" encoding="iso-8859-1"?>
<!-- Generator: Adobe Illustrator 19.0.0, SVG Export Plug-In . SVG Version: 6.00 Build 0)  -->
<svg xmlns="http://www.w3.org/2000/svg" xmlns:xlink="http://www.w3.org/1999/xlink" version="1.1" id="Layer_1" x="0px" y="0px" viewBox="0 0 495.998 495.998" style="enable-background:new 0 0 495.998 495.998;" xml:space="preserve" width="512" height="512">
<g>
	<path style="fill:#E46A53;" d="M263.326,487.998c-18.638,0-34.924-6.253-47.096-18.083c-12.407-12.056-19.584-29.116-20.751-49.335   c-0.833-14.536,4-28.345,9.116-42.964c1.097-3.139,3.006-9.209,5.833-18.554l1.731-5.713c3.742-12.503,7.667-25.937,9.672-32.829   l0.094-0.32l0.059-0.232c1.433-6.388,2.149-12.748,2.132-18.906c-0.073-23.097-10.563-41.909-19.817-58.507   c-7.768-13.943-15.103-27.111-16.848-41.962l-0.021-0.202c-11.618-75.996,7.93-107.368,28.589-128.028   c8.793-8.804,26.831-18.283,45.647-18.283c9.18,0,17.436,2.301,24.538,6.839l0.137,0.087l0.134,0.093   c9.785,6.829,20.511,19.005,25.502,28.953c9.195,18.303,12.126,20.85,52.092,45.17l0.211,0.121   c4.343,2.345,7.332,5.927,8.649,10.366c1.991,6.714-0.553,12.781-1.208,14.17l0.008,0.004   c-3.585,7.153-11.825,11.776-20.992,11.776c-4.52,0-8.81-1.135-12.404-3.283c-9.677-5.816-30.814-18.161-33.671-19.823   l-0.512-0.298l-0.462-0.37c-2.155-1.725-13.508-10.327-25.371-10.327c-3.858,0-7.377,0.949-10.46,2.819l-0.186,0.112l-0.191,0.103   c-4.777,2.556-8.953,8.187-10.637,14.346c-1.831,6.717-0.809,13.289,3.042,19.529l0.148,0.251   c0.332,0.584,1.927,2.968,9.548,12.462l0.149,0.176c11.555,13.916,19.144,33.145,21.367,54.145   c2.24,21.151-1.313,40.862-10.003,55.5c-6.973,11.729-44.13,78.982-48.144,90.5l-0.085,0.243l-0.052,0.122   c-4.566,13.095-7.846,22.558-7.352,30.973c1.43,24.87,15.23,39.128,37.863,39.128c22.528,0,28.731-7.944,35.034-19.167   c5.372-9.553,4.188-22.206-2.876-30.773c-5.251-6.373-10.498-8.264-12.023-8.449h-0.195c-8.235,0-14.854-6.423-15.066-14.622   c-0.106-4.005,1.354-7.815,4.113-10.724c2.802-2.933,6.516-4.584,10.477-4.672l0.327-0.002c3.269,0,20.342,0.934,35.543,19.371   c15.01,18.206,17.377,44.163,5.89,64.59C314.948,470.571,300.168,487.998,263.326,487.998z"/>
	<path style="fill:#F4A026;" d="M205.37,328.113c-4.542-8.344-11.333-16.301-20.185-23.649   c-7.832-6.504-15.622-11.161-20.777-13.923l-6.91-3.701l17.771-34.864l-41.664-31.237l23.082-22.232l-34.349-31.179l31.353-23.865   l-23.296-31.846l38.676-23.198l-12.252-29.431l49.759-16.502L186.414,7.999l66.381,5.562l2.049,3.84   c3.434,6.434,8.867,14.312,16.151,23.421l14.451,14.452l-20.839-1.108c-1.121-0.06-2.056-0.088-2.941-0.088   c-17.979,0-36.573,9.198-45.649,18.284c-19.454,19.454-40.28,51.59-28.582,128.087l0.035,0.263   c1.766,14.818,9.426,28.555,16.834,41.84c9.267,16.632,19.747,35.442,19.813,58.513c0.011,6.153-0.692,12.458-2.091,18.749   l-0.06,0.269l-7.337,25.041L205.37,328.113z"/>
	<g>
		<circle cx="277.879" cy="92.898" r="7.508"/>
		<path d="M368.125,128.328c-40.29-24.52-40.96-25.85-49-41.88c-2.48-4.94-6.12-10.25-10.34-15.29c-2.05-2.45-6.52-7.13-6.53-7.14    c-4.68-4.81-33.75-35.11-41.98-53.68c-1.18-2.68-3.73-4.49-6.64-4.74c-7.69-0.64-66.55-5.57-66.55-5.57    c-2.96-0.25-5.84,1.18-7.43,3.7c-1.59,2.53-1.65,5.73-0.14,8.31l15.18,25.96l-40.39,13.4c-2.11,0.7-3.84,2.25-4.76,4.27    c-0.93,2.02-0.97,4.34-0.11,6.39l9.59,23.06l-32.75,19.64c-1.93,1.16-3.28,3.07-3.73,5.28c-0.44,2.2,0.06,4.49,1.39,6.31    l18.66,25.5l-25.1,19.11c-1.89,1.44-3.05,3.64-3.15,6.02c-0.1,2.37,0.86,4.67,2.62,6.27l28.01,25.43l-16.92,16.3    c-1.69,1.63-2.58,3.92-2.44,6.26c0.15,2.34,1.31,4.5,3.19,5.91l36.27,27.19l-14.83,29.11c-1.01,1.97-1.15,4.28-0.39,6.36    c0.76,2.09,2.35,3.77,4.39,4.63c0.49,0.21,48.48,21.03,49.86,57.89c-3.38,11.27-5.82,19.09-7.07,22.64    c-5.38,15.42-10.47,29.98-9.54,46.07c1.28,22.25,9.29,41.14,23.16,54.61c13.69,13.31,31.9,20.35,52.67,20.35    c41.21,0,58.09-20.6,68.19-38.55c13.1-23.29,10.41-52.87-6.68-73.61c-17.49-21.21-37.83-22.28-41.72-22.28h-0.51    c-6.14,0.16-11.86,2.7-16.09,7.16s-6.48,10.3-6.32,16.45c0.33,12.28,10.01,21.96,22.21,22.4c1.07,0.42,3.8,1.78,6.91,5.54    c4.93,5.99,5.8,15.14,2.07,21.77c-5.25,9.36-9.42,15.09-28.06,15.09c-23.19,0-29.05-17.17-29.87-31.59    c-0.41-6.89,2.7-15.79,7-28.12l0.04-0.12c3.52-10.07,39.72-75.99,47.47-89.05c9.77-16.44,13.73-38.12,11.14-61.04    c-2.48-21.92-10.93-42.97-23.19-57.75c-3.53-4.4-9.11-11.86-9.11-11.86c-2.73-4.34-3.48-8.84-2.24-13.39    c1.24-4.55,4.34-8.19,6.76-9.44c0,0,2.21-1.21,3.11-1.49c1.19-0.37,2.48-0.56,3.88-0.56c8.21,0,17.72,6.37,20.68,8.82l0.51,0.42    l0.58,0.34c0.24,0.14,23.88,13.94,34.12,20.09c4.84,2.9,10.56,4.43,16.53,4.43c12.17,0,23.22-6.35,28.15-16.2    C383.696,153.858,383.496,136.658,368.125,128.328z M190.296,298.308c-8.19-6.8-16.38-11.75-22.11-14.82l14.21-27.88    c1.76-3.46,0.78-7.7-2.33-10.03l-34.14-25.6l16.31-15.71c1.6-1.53,2.48-3.66,2.45-5.88c-0.03-2.21-0.98-4.31-2.62-5.8    l-27.23-24.72l23.7-18.04c3.46-2.64,4.18-7.57,1.61-11.09l-18.12-24.77l31.16-18.69c3.4-2.04,4.79-6.27,3.27-9.93l-8.94-21.48    l41.58-13.79c2.29-0.76,4.12-2.51,4.97-4.76c0.85-2.26,0.64-4.78-0.58-6.87l-12.39-21.19c14.91,1.25,36.72,3.07,46.69,3.91    c4.2,7.87,10.6,16.72,17.24,25l0.01,0.01c-1.11-0.06-2.23-0.1-3.37-0.1c-21.09,0-41.38,10.69-51.31,20.63    c-20.79,20.79-43.07,54.91-30.83,134.95c1.95,16.37,10,30.82,17.79,44.79c9.21,16.53,18.74,33.62,18.8,54.64    c0.01,5.52-0.62,11.23-1.9,16.99c-0.21,0.71-0.87,2.97-1.82,6.21C206.676,313.778,198.486,305.108,190.296,298.308z     M364.576,156.298c-2.24,4.47-7.67,7.36-13.84,7.36c-3.07,0-5.94-0.74-8.3-2.15c-9.45-5.68-30.16-17.78-33.75-19.87    c-3.1-2.48-16.07-12.08-30.37-12.08c-5.35,0-10.26,1.34-14.61,3.98c-6.73,3.6-12.3,10.95-14.58,19.29    c-1.68,6.16-2.35,15.63,3.95,25.84c0.67,1.18,2.58,3.95,10.41,13.7l0.09,0.1c21.83,26.29,26.8,73.23,10.64,100.45    c-5.91,9.94-44.4,79.27-48.82,91.95l-0.05,0.12c-4.91,14.08-8.46,24.25-7.87,34.32c1.68,29.21,18.82,46.66,45.85,46.66    c26.73,0,35.13-11,42.01-23.25c6.95-12.36,5.44-28.72-3.68-39.78c-7.68-9.32-15.64-11.36-18.06-11.36h-0.33    c-3.86,0-6.97-3-7.07-6.83c-0.05-1.87,0.63-3.65,1.92-5.01c1.3-1.36,3.04-2.14,4.85-2.18h0.15c2.63,0,16.45,0.79,29.37,16.46    c12.92,15.67,14.97,38.01,5.09,55.58c-8.89,15.79-21.61,30.4-54.25,30.4c-16.52,0-30.87-5.47-41.52-15.82    c-10.95-10.64-17.29-25.88-18.34-44.06c-0.74-12.91,3.62-25.4,8.68-39.86c1.16-3.32,3.15-9.66,5.94-18.88l1.73-5.71    c4.75-15.87,9.78-33.2,9.83-33.37l0.12-0.47c1.58-7.01,2.37-14,2.35-20.79c-0.08-25.15-11.1-44.93-20.83-62.38    c-7.37-13.23-14.33-25.73-15.89-39l-0.03-0.29c-11.14-72.61,7.05-102.09,26.31-121.35c7.91-7.92,24.19-15.94,39.99-15.94    c7.64,0,14.44,1.88,20.23,5.58c8.67,6.05,18.52,17.19,22.93,25.98c10.43,20.76,15.17,24.13,55.17,48.47l0.4,0.23    C368.836,146.818,364.625,156.208,364.576,156.298z"/>
	</g>
</g>















</svg>
