<?xml version="1.0" encoding="iso-8859-1"?>
<!-- Generator: Adobe Illustrator 19.0.0, SVG Export Plug-In . SVG Version: 6.00 Build 0)  -->
<svg xmlns="http://www.w3.org/2000/svg" xmlns:xlink="http://www.w3.org/1999/xlink" version="1.1" id="Layer_1" x="0px" y="0px" viewBox="0 0 483.706 483.706" style="enable-background:new 0 0 483.706 483.706;" xml:space="preserve" width="512" height="512">
<g>
	<path style="fill:#3768AF;" d="M346.798,161.606c-0.258-0.241-25.854-24.275-37.868-35.666l-14.562-13.806h80.835   c7.95,0,12.671,5.249,14.438,10.162c1.763,4.941,1.443,11.998-4.717,17.046l-33.007,27.071L346.798,161.606z"/>
	<path style="fill:#3EBD9E;" d="M241.473,398.554c-13.241,0-25.785-4.584-31.956-11.68c-2.739-3.14-4.022-6.539-3.725-9.854v-0.011   c-0.464,3.313-2.492,6.345-5.893,8.795c-4.987,3.603-12.677,5.672-21.09,5.672c-4.164,0-8.429-0.497-12.676-1.477l-0.823-0.181   c-15.419-3.564-24.808-11.768-28.452-18.256c-2.154-3.829-2.718-7.588-1.626-10.866l0.02-0.06l-0.1,0.266l-0.087,0.199   c-1.324,3.037-4.098,5.45-8.02,6.978c-3.063,1.191-6.827,1.821-10.891,1.821c-5.108,0-13.219-0.999-22.872-5.751   c-0.045-0.021-0.887-0.428-0.887-0.428c-12.187-6.046-21.626-15.966-24.046-25.273c-1.278-4.923-0.24-8.262,0.989-10.295   l-0.052,0.08l-0.063,0.066c-1.392,1.909-4.012,4.103-8.879,4.9c-1.187,0.189-2.417,0.282-3.691,0.282   c-9.231,0-20.322-4.688-29.668-12.542l-0.614-0.51C15.339,311.14,8.145,298.71,8.005,288.726c-0.082-4.89,1.613-7.791,3.222-9.432   l0.041-0.051l3.063-2.854c39.753-37.224,161.599-151.433,175.185-164.246c0.004-0.004,7.57-7.13,11.299-10.648   c11.175-10.541,25.794-16.345,41.166-16.345c15.447,0,30.118,5.854,41.313,16.482c0,0,188.818,177.312,188.862,177.354   c1.707,1.581,3.635,4.53,3.548,9.761c-0.142,9.634-6.66,21.328-17.012,30.503c-0.528,0.472-2.948,2.493-2.948,2.493   c-9.121,7.349-19.853,11.736-28.705,11.736c-1.271,0-2.497-0.092-3.646-0.274c-5.06-0.836-7.684-3.14-9.034-5.085   c1.71,2.796,2.053,6.37,0.987,10.372c-2.413,9.28-11.886,19.217-24.122,25.272l-0.709,0.345   c-9.702,4.786-17.847,5.791-22.971,5.791c-4.063,0-7.829-0.629-10.89-1.82c-3.838-1.502-6.551-3.823-7.904-6.744v0.054l0.147,0.377   l0.009,0.75c0.401,2.821-0.3,5.921-2.058,9.048c-3.662,6.495-13.075,14.697-28.523,18.264l-0.685,0.161   c-4.273,0.984-8.56,1.483-12.739,1.483c-8.418,0-16.108-2.068-21.101-5.673c-3.39-2.45-5.414-5.469-5.882-8.76   c0.209,2.409-0.342,5.917-3.704,9.818c-6.206,7.119-18.743,11.697-31.97,11.697H241.473z"/>
	<path style="fill:#3768AF;" d="M98.78,139.329c-6.157-5.029-6.479-12.088-4.722-17.013c1.774-4.933,6.498-10.182,14.455-10.182   h81.02l-14.675,13.823c-11.615,10.942-33.652,31.628-37.966,35.655l-5.118,4.778L98.78,139.329z"/>
	<g>
		<path d="M477.413,272.954l-113.36-106.15l25.95-21.28c7.72-6.33,10.54-16.5,7.18-25.9c-3.37-9.41-11.99-15.49-21.98-15.49h-77.64    c-1.57-1.48-3.14-2.97-4.71-4.46l-4.06-3.85c-26.16-24.84-67.22-24.9-93.47-0.15c-2.97,2.8-5.98,5.64-8.98,8.46h-77.83    c-9.99,0-18.62,6.08-21.98,15.49c-3.37,9.4-0.55,19.57,7.17,25.9l25.95,21.27c-36.94,34.6-73.87,69.18-110.81,103.77l-2.56,2.4    c-4.2,3.79-6.38,9.28-6.28,15.88c0.18,12.4,8.3,26.84,21.13,37.62l0.68,0.58c10.92,9.17,23.82,14.44,34.84,14.44    c1.43,0,2.82-0.11,4.17-0.29c3.3,11.41,13.98,22.76,28.12,29.74c0.07,0.04,0.66,0.32,0.8,0.39c8.86,4.36,18.08,6.6,26.46,6.6    c4.95,0,9.61-0.78,13.72-2.38c5.74,10.16,18.6,18.61,33.52,22.05c0.17,0.04,0.82,0.19,0.82,0.19c4.91,1.13,9.82,1.68,14.56,1.68    c9.75,0,18.71-2.34,25.18-6.78c7.86,8.57,22.12,13.87,37.47,13.87h0.77c15.34,0,29.6-5.3,37.46-13.87    c6.46,4.43,15.41,6.77,25.17,6.77c4.75,0,9.7-0.55,14.64-1.69c0,0,0.57-0.13,0.67-0.15c14.99-3.46,27.85-11.91,33.6-22.07    c4.11,1.6,8.77,2.39,13.72,2.38c8.4,0,17.65-2.25,26.54-6.64c0,0,0.68-0.33,0.71-0.35c14.14-6.99,24.83-18.33,28.13-29.74    c1.35,0.18,2.74,0.29,4.17,0.29c10.74,0,23.29-5.02,34.03-13.78c0.25-0.2,2.04-1.71,2.3-1.93c12.39-10.75,20.14-24.81,20.32-36.93    C483.793,282.244,481.623,276.754,477.413,272.954z M375.203,120.134c4.8,0,6.5,3.73,6.91,4.87c0.41,1.15,1.45,5.11-2.26,8.15    l-27.58,22.62c0,0-25.7-24.13-37.84-35.64H375.203z M103.853,133.144c-3.71-3.03-2.67-6.99-2.26-8.14    c0.41-1.14,2.12-4.87,6.92-4.87h60.86c-11.71,11.03-33.59,31.57-37.94,35.63L103.853,133.144z M453.383,313.264    c-0.38,0.34-2.37,2.01-2.66,2.25c-9.98,8.04-20.22,10.72-26.08,9.79c-1.09-0.18-3.04-0.65-3.77-1.83    c-0.04-0.05-76.17-116.92-99.77-153.14c-2.41-3.71-7.37-4.75-11.07-2.34c-3.7,2.41-4.75,7.37-2.34,11.07    c23.6,36.23,99.74,153.09,99.78,153.14c0.78,1.15,0.43,3.14,0.14,4.23c-1.53,5.88-8.3,14.4-19.94,20.16c0,0-0.67,0.32-0.7,0.34    c-12.02,5.93-22.28,5.69-27.42,3.69c-1.89-0.74-3.21-1.76-3.61-2.8c-0.01-0.02-48.7-135.82-60.06-167.49    c-1.49-4.16-6.07-6.32-10.23-4.83c-4.16,1.49-6.32,6.07-4.83,10.23c11.36,31.67,60.09,167.6,60.1,167.61    c0.28,1.05-0.1,2.61-1.05,4.3c-2.69,4.77-10.4,11.4-23.35,14.39c0,0-0.58,0.13-0.68,0.16c-12.25,2.82-22.57,0.58-27.36-2.88    c-0.94-0.68-2.52-2.03-2.66-3.52c0-0.06-16.67-145-20.01-174.02c-0.5-4.39-4.46-7.54-8.86-7.04c-4.39,0.51-7.54,4.48-7.03,8.87    c3.34,29.01,20,173.95,20.01,174.01c0.21,1.48-1.03,3.15-1.78,4.02c-3.87,4.44-13.39,8.92-25.91,8.92h-0.77    c-12.54,0-22.05-4.48-25.92-8.93c-0.75-0.86-1.98-2.52-1.78-4c0.01-0.06,20-174.02,20-174.02c0.51-4.39-2.64-8.36-7.03-8.87    c-4.39-0.5-8.36,2.65-8.86,7.04c0,0-19.99,173.95-20,174.01c-0.14,1.5-1.73,2.86-2.66,3.53c-4.79,3.46-15.11,5.7-27.29,2.89    c-0.18-0.04-0.82-0.18-0.82-0.18c-12.89-2.98-20.6-9.61-23.28-14.38c-0.99-1.76-1.36-3.37-1.01-4.42    c0.04-0.09,40.07-111.76,60.06-167.49c1.49-4.16-0.67-8.74-4.83-10.23c-4.16-1.49-8.74,0.67-10.23,4.83    c-19.98,55.69-60.03,167.41-60.09,167.57c-0.44,1.01-1.74,2-3.59,2.72c-5.14,2-15.4,2.24-27.4-3.69    c-0.07-0.03-0.65-0.32-0.79-0.38c-11.59-5.75-18.33-14.24-19.86-20.12c-0.28-1.08-0.64-3.07,0.15-4.23    c0.03-0.05,99.76-153.13,99.76-153.13c2.41-3.7,1.37-8.66-2.34-11.07c-3.7-2.41-8.65-1.37-11.07,2.33    c0,0-68.55,105.23-98.05,150.52c0,0-1.67,2.56-1.7,2.61c-0.74,1.19-2.69,1.66-3.79,1.84c-6.03,0.96-16.71-1.91-26.92-10.49    l-0.65-0.54c-10.56-8.89-15.39-19.29-15.48-25.66c-0.03-1.81,0.34-3.19,1.01-3.79c0.05-0.04,2.77-2.58,2.77-2.58    c39.15-36.66,161.69-151.52,175.22-164.28c0,0,7.57-7.13,11.3-10.65c20.07-18.93,51.47-18.88,71.48,0.12    c0,0,188.86,177.35,188.91,177.4c0.67,0.59,1.04,1.97,1.01,3.78C467.613,294.744,463.143,304.614,453.383,313.264z"/>
	</g>
</g>















</svg>
